# xmcd CD database file
# Copyright (C) 1996 Ti Kan
#
# Track frame offsets:
# 	150
# 	16955
# 	31913
# 	52820
# 	66525
# 	89653
# 	113610
# 	128015
# 	147743
# 	163795
# 	177585
# 	190343
#
# Disc length: 2777 seconds
#
# Revision: 1
# Processed by: cddbd v1.4b41PL1 Copyright (c) Steve Scherf et al.
# Submitted via: DiscPlay 3.4.1
#
DISCID=ac0ad70c
DTITLE=KLIPWERF - DIE KLIPWERF BOEREORKES
DYEAR=1900
DGENRE=
TTITLE0=WARMVAT VASTRAP
TTITLE1=BOESMANLAND
TTITLE2=GIMME HOPE JOHANNA
TTITLE3=VISSRWALS
TTITLE4=OH LONESOME ME
TTITLE5=TCHIP TCHIIP
TTITLE6=BYEJAM SETIES
TTITLE7=DIE OU WAENHUIS
TTITLE8=FROM A JACK TO A KING
TTITLE9=ELLIE SWARTJAN WALS
TTITLE10=SUSSIE
TTITLE11=IN THE MOOD
EXTD=
EXTT0=
EXTT1=
EXTT2=
EXTT3=
EXTT4=
EXTT5=
EXTT6=
EXTT7=
EXTT8=
EXTT9=
EXTT10=
EXTT11=
PLAYORDER=
